<?xml version="1.0" encoding="utf-8"?>
<!-- Generator: Adobe Illustrator 15.0.2, SVG Export Plug-In . SVG Version: 6.00 Build 0)  -->
<!DOCTYPE svg PUBLIC "-//W3C//DTD SVG 1.1//EN" "http://www.w3.org/Graphics/SVG/1.1/DTD/svg11.dtd">
<svg version="1.1" id="Capa_1" xmlns="http://www.w3.org/2000/svg" xmlns:xlink="http://www.w3.org/1999/xlink" x="0px" y="0px"
	 width="33px" height="20.656px" viewBox="58.5 189.672 33 20.656" enable-background="new 58.5 189.672 33 20.656"
	 xml:space="preserve">
<rect x="79.934" y="190.998" fill="#FFFFFF" width="8.262" height="2.056"/>
<path fill="#FFFFFF" d="M91.484,202.549c0,0.371-0.015,0.728-0.045,1.068H80.837h-0.024c-0.099,2.344,1.611,3.738,3.556,3.738
	c1.379,0,2.589-0.731,3.287-1.97h3.479c-0.955,3.482-3.759,4.933-7.069,4.933c-4.337,0-7.42-3.478-7.42-7.77
	c0-4.291,3.321-7.769,7.42-7.769C88.162,194.78,91.484,198.258,91.484,202.549z M80.813,201.023h6.536
	c-0.259-1.93-1.624-3.161-3.269-3.161C82.437,197.863,81.072,199.094,80.813,201.023z"/>
<path fill="#FFFFFF" d="M75.37,202.878c0.267,2.98-0.268,4.83-3.309,6.33c-1.139,0.562-2.566,0.738-3.905,0.738h-9.64v-20.264
	c0,0,9.29,0,10.605,0s5.379,0.781,5.401,4.686c0.016,2.7-1.512,3.934-2.789,4.525C71.734,198.894,75.103,199.897,75.37,202.878z
	 M71.028,203.734c0-2.844-3.211-2.77-3.211-2.77h-4.841v5.541h4.841C67.817,206.506,71.028,206.58,71.028,203.734z M70.231,195.499
	c0-2.384-2.692-2.323-2.692-2.323h-4.563v4.645h4.563C67.539,197.821,70.231,197.883,70.231,195.499z"/>
</svg>
