<?xml version="1.0" encoding="utf-8"?>
<!-- Generator: Adobe Illustrator 15.0.2, SVG Export Plug-In . SVG Version: 6.00 Build 0)  -->
<!DOCTYPE svg PUBLIC "-//W3C//DTD SVG 1.1//EN" "http://www.w3.org/Graphics/SVG/1.1/DTD/svg11.dtd">
<svg version="1.1" id="Capa_1" xmlns="http://www.w3.org/2000/svg" xmlns:xlink="http://www.w3.org/1999/xlink" x="0px" y="0px"
	 width="116.636px" height="73.007px" viewBox="16.682 163.497 116.636 73.007"
	 enable-background="new 16.682 163.497 116.636 73.007" xml:space="preserve">
<rect x="92.451" y="168.15" fill="#FFFFFF" width="29.232" height="7.271"/>
<path fill="#FFFFFF" d="M133.318,209.017c0,1.312-0.053,2.574-0.158,3.781H95.651h-0.087c-0.35,8.29,5.7,13.223,12.579,13.223
	c4.875,0,9.159-2.586,11.629-6.97h12.306c-3.377,12.324-13.298,17.453-25.011,17.453c-15.343,0-26.251-12.307-26.251-27.486
	c0-15.181,11.754-27.487,26.251-27.487S133.318,193.836,133.318,209.017z M95.564,203.621h23.123
	c-0.919-6.829-5.744-11.183-11.563-11.183C101.309,192.438,96.482,196.792,95.564,203.621z"/>
<path fill="#FFFFFF" d="M76.309,210.18c0.945,10.545-0.945,17.088-11.707,22.396c-4.028,1.987-9.078,2.609-13.816,2.609H16.682
	v-71.688c0,0,32.868,0,37.521,0c4.654,0,19.028,2.763,19.11,16.579c0.055,9.552-5.352,13.918-9.869,16.009
	C63.444,196.085,75.364,199.636,76.309,210.18z M60.948,213.214c0-10.062-11.361-9.8-11.361-9.8H32.461v19.599h17.126
	C49.587,223.014,60.948,223.275,60.948,213.214z M58.13,184.075c0-8.435-9.525-8.217-9.525-8.217H32.461v16.434h16.143
	C48.604,192.292,58.13,192.51,58.13,184.075z"/>
</svg>
