<?xml version="1.0" encoding="utf-8"?>
<!-- Generator: Adobe Illustrator 15.0.2, SVG Export Plug-In . SVG Version: 6.00 Build 0)  -->
<!DOCTYPE svg PUBLIC "-//W3C//DTD SVG 1.1//EN" "http://www.w3.org/Graphics/SVG/1.1/DTD/svg11.dtd">
<svg version="1.1" id="Capa_1" xmlns="http://www.w3.org/2000/svg" xmlns:xlink="http://www.w3.org/1999/xlink" x="0px" y="0px"
	 width="33px" height="33px" viewBox="16.25 7.883 33 33" enable-background="new 16.25 7.883 33 33" xml:space="preserve">
<g>
	<path id="LinkedIn_3_" fill="#FFFFFF" d="M49.25,27.952V40.15h-7.076V28.763c0-2.863-1.021-4.809-3.581-4.809
		c-1.958,0-3.113,1.317-3.629,2.585c-0.186,0.457-0.242,1.096-0.242,1.727v11.881h-7.069c0,0,0.095-19.277,0-21.274h7.07v3.016
		c-0.01,0.024-0.03,0.045-0.04,0.073h0.04V21.89c0.944-1.45,2.618-3.515,6.375-3.515C45.764,18.375,49.25,21.415,49.25,27.952z
		 M20.253,8.617c-2.418,0-4.002,1.586-4.002,3.679c0,2.037,1.537,3.677,3.912,3.677h0.043c2.472,0,4.004-1.64,4.004-3.677
		C24.16,10.203,22.677,8.617,20.253,8.617z M16.673,40.15h7.071V18.873h-7.071V40.15z"/>
</g>
</svg>
