<?xml version="1.0" encoding="utf-8"?>
<!-- Generator: Adobe Illustrator 15.0.2, SVG Export Plug-In . SVG Version: 6.00 Build 0)  -->
<!DOCTYPE svg PUBLIC "-//W3C//DTD SVG 1.1//EN" "http://www.w3.org/Graphics/SVG/1.1/DTD/svg11.dtd">
<svg version="1.1" id="Capa_1" xmlns="http://www.w3.org/2000/svg" xmlns:xlink="http://www.w3.org/1999/xlink" x="0px" y="0px"
	 width="33px" height="33px" viewBox="239.5 239.5 33 33" enable-background="new 239.5 239.5 33 33" xml:space="preserve">
<g>
	<path fill="#FFFFFF" d="M253.738,261.271c-0.857,4.496-1.905,8.806-5.007,11.058c-0.958-6.796,1.406-11.898,2.504-17.316
		c-1.871-3.149,0.226-9.49,4.172-7.928c4.857,1.922-4.206,11.712,1.878,12.936c6.353,1.275,8.946-11.022,5.007-15.021
		c-5.691-5.775-16.568-0.132-15.23,8.136c0.326,2.022,2.414,2.635,0.834,5.424c-3.642-0.808-4.73-3.68-4.589-7.511
		c0.226-6.269,5.633-10.658,11.057-11.266c6.86-0.768,13.299,2.518,14.187,8.971c1.001,7.283-3.096,15.172-10.431,14.604
		C256.131,263.204,255.296,262.219,253.738,261.271z"/>
</g>
</svg>
